<?xml version="1.0" encoding="utf-8"?>
<!-- Generator: Adobe Illustrator 17.0.0, SVG Export Plug-In . SVG Version: 6.00 Build 0)  -->
<!DOCTYPE svg PUBLIC "-//W3C//DTD SVG 1.1//EN" "http://www.w3.org/Graphics/SVG/1.1/DTD/svg11.dtd">
<svg version="1.1" id="Layer_1" xmlns="http://www.w3.org/2000/svg" xmlns:xlink="http://www.w3.org/1999/xlink" x="0px" y="0px"
	 width="250px" height="70px" viewBox="0 0 250 70" enable-background="new 0 0 250 70" xml:space="preserve">
<polygon fill="#6B3887" points="39.898,13.534 40.079,13.353 52.67,13.353 52.853,13.534 52.853,16.073 52.67,16.255 42.946,16.255 
	42.946,23.512 51.4,23.512 51.544,23.692 50.893,26.233 50.675,26.415 42.946,26.415 42.946,34.942 52.707,34.942 52.853,35.123 
	52.489,37.663 52.271,37.844 40.079,37.844 39.898,37.663 "/>
<path fill="#6B3887" d="M56.263,23.693l-0.907-3.411l0.181-0.217l2.214-0.327l0.217,0.146l1.016,2.539
	c0.146-0.471,1.198-2.938,4.972-2.938l0.182,0.217l-0.546,3.048l-0.254,0.183c-0.509-0.255-1.126-0.327-1.887-0.327
	c-0.798,0-1.524,0.108-2.287,0.327v14.73l-0.181,0.182h-2.54l-0.181-0.182v-13.97H56.263z"/>
<path fill="#6B3887" d="M66.06,28.991c1.345-1.089,3.303-1.378,5.661-1.378h1.271c0.799,0,1.307-0.182,1.597-0.363v-1.704
	c0-2.796-1.706-3.449-3.738-3.449c-1.414,0-2.685,0.365-3.592,1.09l-0.29-0.037l-1.234-1.814l0.073-0.291
	c1.305-1.016,3.119-1.56,5.079-1.56c3.701,0,6.603,1.487,6.603,5.515v9.288l0.907,3.194l-0.18,0.218l-2.214,0.325l-0.217-0.144
	l-1.053-2.614c0,0-0.871,3.013-4.899,3.013c-2.575,0-5.514-1.344-5.514-5.335C64.321,31.132,65.045,29.825,66.06,28.991
	 M70.307,35.667c1.814,0,4.282-1.051,4.282-1.051v-6.134c-0.436,1.416-1.96,1.816-3.194,1.816h-0.871
	c-1.27,0-3.156,0.471-3.156,2.685C67.368,34.579,68.493,35.667,70.307,35.667z"/>
<path fill="#6B3887" d="M81.193,23.693l-0.907-3.411l0.181-0.217l2.214-0.327l0.217,0.146l1.017,2.539
	c0.146-0.471,1.197-2.938,5.081-2.938c2.068,0,3.665,0.907,4.499,2.685c0.399-0.725,1.814-2.685,5.296-2.685
	c3.194,0,5.552,2.141,5.552,6.276v11.901l-0.181,0.182h-2.577l-0.144-0.182V26.341c0-3.119-1.778-4.209-3.847-4.209
	c-0.798,0-2.938,0.544-3.772,0.8c0.217,0.724,0.398,1.559,0.398,2.539v12.192l-0.181,0.182h-2.541l-0.181-0.182V26.341
	c0-3.119-1.453-4.245-3.521-4.245c-0.798,0-3.01,0.653-3.701,0.836v14.73l-0.181,0.182h-2.541l-0.18-0.182
	C81.193,37.662,81.193,23.693,81.193,23.693z"/>
<path fill="#6B3887" d="M114.286,35.848l1.487-2.031l0.327-0.037c1.053,0.907,3.375,1.597,4.971,1.597
	c2.577,0,4.753-1.124,4.753-4.174c0-5.842-10.848-3.265-10.848-11.248c0-4.353,3.338-6.966,7.257-6.966
	c3.628,0,5.913,1.487,6.241,1.814l0.037,0.254l-1.38,2.105l-0.29,0.036c-1.016-0.761-2.577-1.307-4.464-1.307
	c-2.902,0-4.282,1.67-4.282,3.957c0,5.442,10.85,2.938,10.85,11.319c0,5.442-4.318,7.112-7.983,7.112
	c-1.705,0-4.716-0.69-6.603-2.177L114.286,35.848z"/>
<path fill="#6B3887" d="M131.377,25.798c0-3.701,2.612-6.313,7.076-6.313c2.721,0,5.152,1.234,6.169,3.701l-0.11,0.217l-2.177,0.762
	l-0.254-0.073c-0.653-1.234-1.996-1.996-3.811-1.996c-2.431,0-3.991,1.489-3.991,4.282v5.008c0,2.794,1.561,4.282,3.991,4.282
	c2.251,0,3.375-0.799,3.992-1.924l0.253-0.071l2.177,0.761l0.109,0.218c-0.907,2.358-3.266,3.628-6.349,3.628
	c-4.464,0-7.076-2.575-7.076-6.276L131.377,25.798L131.377,25.798z"/>
<path fill="#6B3887" d="M147.126,15.602V12.59l0.181-0.182h3.011l0.182,0.182v3.012l-0.182,0.182h-3.011L147.126,15.602z
	 M147.343,20.319l0.181-0.217l2.54-0.363l0.181,0.144v17.78l-0.181,0.181h-2.54l-0.181-0.181V20.319z"/>
<path fill="#6B3887" d="M153.404,25.908c0-4.065,2.794-6.422,6.893-6.422c4.645,0,6.349,2.829,6.349,5.369
	c0,3.592-2.539,5.334-5.986,5.334c-3.555,0-4.427-1.779-4.535-2.033l0.181,1.343v1.885c0,2.794,1.597,4.282,4.065,4.282
	c2.177,0,3.265-0.725,3.955-1.922l0.254-0.073l2.177,0.763l0.11,0.217c-0.871,2.322-3.267,3.628-6.35,3.628
	c-4.464,0-7.112-2.141-7.112-6.278L153.404,25.908L153.404,25.908z M159.827,27.612c1.995,0,3.772-0.653,3.772-2.902
	c0-1.272-0.978-2.614-3.409-2.614c-2.467,0-3.884,1.414-3.884,4.209v0.653C156.306,26.959,157.867,27.612,159.827,27.612z"/>
<path fill="#6B3887" d="M169.697,23.693l-0.907-3.411l0.18-0.217l2.214-0.327l0.217,0.146l1.017,2.539
	c0.146-0.471,1.197-2.938,5.081-2.938c3.192,0,5.769,2.141,5.769,6.276v11.901l-0.182,0.182h-2.541l-0.18-0.182V26.341
	c0-3.119-1.997-4.245-4.065-4.245c-0.798,0-3.01,0.653-3.701,0.836v14.73l-0.18,0.182h-2.541l-0.18-0.182L169.697,23.693
	L169.697,23.693z"/>
<path fill="#6B3887" d="M187.368,22.532h-1.96l-0.18-0.181v-2.25l0.18-0.18h2.106l0.327-3.665l0.181-0.218l2.068-0.291l0.181,0.146
	v4.028h6.024l0.181,0.18l-0.689,2.25l-0.255,0.181h-5.261v8.744c0,2.467,1.199,4.318,3.194,4.318c1.38,0,2.685-1.124,2.685-1.124
	l0.255,0.037l1.124,2.068l-0.073,0.254c-1.197,0.836-2.612,1.453-4.245,1.453c-3.301,0-5.842-2.25-5.842-6.785L187.368,22.532
	L187.368,22.532z"/>
<path fill="#6B3887" d="M198.655,15.602V12.59l0.181-0.182h3.011l0.182,0.182v3.012l-0.182,0.182h-3.011L198.655,15.602z
	 M198.872,20.319l0.181-0.217l2.54-0.363l0.181,0.144v17.78l-0.181,0.181h-2.54l-0.181-0.181V20.319z"/>
<path fill="#6B3887" d="M208.196,22.532h-2.358l-0.182-0.181v-2.25l0.182-0.18h2.358V16.11c0-3.991,3.265-5.95,6.567-5.95
	c2.867,0,4.717,1.488,5.371,2.032l0.037,0.253l-1.597,1.815l-0.29-0.037c-0.544-0.434-1.851-1.305-3.52-1.305
	c-1.922,0-3.665,0.943-3.665,3.048v3.955h8.202l1.269-0.182l0.182,0.146v17.78l-0.182,0.181h-2.539l-0.182-0.181V22.532H211.1
	v19.631l-0.725,3.664l-0.217,0.254l-1.78-1.053l-0.181-0.325V22.532H208.196z"/>
<path fill="#6B3887" d="M225.648,25.798c0-3.701,2.612-6.313,7.076-6.313c2.721,0,5.152,1.234,6.167,3.701l-0.108,0.217
	l-2.177,0.762l-0.253-0.073c-0.653-1.234-1.997-1.996-3.811-1.996c-2.431,0-3.992,1.489-3.992,4.282v5.008
	c0,2.794,1.561,4.282,3.992,4.282c2.25,0,3.374-0.799,3.991-1.924l0.254-0.071l2.177,0.761l0.11,0.218
	c-0.907,2.358-3.267,3.628-6.35,3.628c-4.464,0-7.076-2.575-7.076-6.276L225.648,25.798L225.648,25.798z"/>
<g>
	<path fill="#FAA830" d="M25.543,13.063c-5.375-3.09-13.163-0.029-17.391,6.833c-4.229,6.862-3.299,14.934,2.076,18.025
		c2.67,1.534,5.936,1.552,9.065,0.336c-0.235-3.105-0.525-6.169-0.868-9.187l-4.041-0.151v-1.342c2.5,0.049,4.239,0.073,5.211,0.073
		c1.727,0,4.039-0.446,6.96-1.342v1.667l-3.281,0.809l-0.497,7.564c1.842-1.331,3.518-3.11,4.844-5.262
		C31.849,24.224,30.918,16.152,25.543,13.063z M26.409,16.759c-0.921-1.479-2.3-2.224-4.115-2.224c-1.393,0-2.649,0.41-3.793,1.242
		c-1.144,0.821-1.716,1.779-1.716,2.872c0,1.318,0.485,2.362,1.467,3.133c0.97,0.784,1.915,1.169,2.835,1.169
		c1.839,0,2.771-0.808,2.771-2.437c0-1.851-0.719-2.772-2.15-2.772c-0.272,0-0.558,0.099-0.87,0.311
		c-0.323,0.211-0.485,0.459-0.485,0.745c0,0.586,0.362,0.871,1.057,0.871c0.324,0,0.709-0.137,1.168-0.436
		c-0.263,1.244-0.833,1.866-1.717,1.866c-0.384,0-0.732-0.236-1.03-0.697c-0.299-0.458-0.461-0.845-0.461-1.169
		c0-0.608,0.261-1.132,0.772-1.579c0.509-0.447,1.131-0.67,1.851-0.67c0.971,0,1.879,0.26,2.697,0.794
		c0.822,0.535,1.245,1.295,1.245,2.263c0,1.021-0.523,1.878-1.555,2.6c-1.032,0.721-2.15,1.081-3.368,1.081
		c-1.43,0-2.687-0.51-3.755-1.506c-1.07-0.994-1.591-2.238-1.591-3.741c0-1.581,0.547-2.984,1.667-4.191
		c1.117-1.218,2.325-1.829,3.603-1.829c3.234,0.002,5.199,1.42,5.909,4.23L26.409,16.759z"/>
</g>
<g enable-background="new    ">
	<path d="M43.742,60.833h-1.21v-14.93h1.21V60.833z"/>
	<path d="M50.087,49.738l0.092,1.784h0.031c0.287-0.622,0.656-1.109,1.107-1.461c0.451-0.353,0.981-0.528,1.589-0.528
		c0.943,0,1.661,0.349,2.153,1.046s0.738,1.818,0.738,3.363v6.891h-1.22v-6.87c0-1.251-0.164-2.119-0.492-2.604
		s-0.831-0.729-1.507-0.729c-0.561,0-1.039,0.207-1.436,0.621c-0.396,0.413-0.708,0.952-0.933,1.615v7.967H49V49.738H50.087z"/>
	<path d="M61.693,49.738l0.092,1.784h0.031c0.287-0.622,0.656-1.109,1.107-1.461c0.451-0.353,0.981-0.528,1.589-0.528
		c0.943,0,1.661,0.349,2.153,1.046s0.738,1.818,0.738,3.363v6.891h-1.22v-6.87c0-1.251-0.164-2.119-0.492-2.604
		s-0.831-0.729-1.507-0.729c-0.561,0-1.039,0.207-1.436,0.621c-0.396,0.413-0.708,0.952-0.933,1.615v7.967h-1.21V49.738H61.693z"/>
	<path d="M71.739,54.476c0-1.463,0.343-2.652,1.031-3.568c0.687-0.916,1.625-1.374,2.814-1.374c1.196,0,2.138,0.456,2.825,1.369
		c0.687,0.912,1.03,2.104,1.03,3.573v1.631c0,1.483-0.342,2.676-1.025,3.578s-1.62,1.354-2.81,1.354
		c-1.203,0-2.148-0.451-2.835-1.354c-0.688-0.902-1.031-2.095-1.031-3.578V54.476z M72.949,56.106c0,1.127,0.226,2.056,0.677,2.783
		c0.451,0.729,1.111,1.092,1.979,1.092c0.848,0,1.499-0.365,1.953-1.097s0.682-1.657,0.682-2.778v-1.631
		c0-1.107-0.228-2.026-0.682-2.758s-1.112-1.098-1.974-1.098s-1.516,0.366-1.964,1.098s-0.671,1.65-0.671,2.758V56.106z"/>
	<path d="M86.298,58.034l0.236,1.097h0.031l0.256-1.097l2.205-8.296h1.241l-3.25,11.095h-0.943l-3.271-11.095h1.241L86.298,58.034z"
		/>
	<path d="M99.441,60.833c-0.068-0.444-0.115-0.768-0.139-0.969c-0.024-0.202-0.036-0.416-0.036-0.641l-0.031-0.011
		c-0.308,0.533-0.708,0.971-1.2,1.313s-1.046,0.513-1.661,0.513c-0.889,0-1.564-0.28-2.025-0.841
		c-0.462-0.561-0.692-1.333-0.692-2.317c0-1.053,0.336-1.88,1.01-2.481s1.605-0.902,2.794-0.902h1.805v-1.364
		c0-0.799-0.181-1.418-0.543-1.855s-0.878-0.656-1.548-0.656c-0.629,0-1.138,0.209-1.528,0.625c-0.39,0.418-0.584,0.94-0.584,1.569
		l-1.21-0.011c0-0.881,0.313-1.646,0.938-2.297c0.626-0.648,1.441-0.974,2.446-0.974c0.984,0,1.771,0.306,2.358,0.918
		c0.588,0.611,0.882,1.513,0.882,2.702v5.444c0,0.396,0.015,0.776,0.046,1.138c0.03,0.363,0.087,0.729,0.169,1.098H99.441z
		 M96.54,59.931c0.643,0,1.205-0.189,1.687-0.569c0.481-0.379,0.829-0.88,1.041-1.502V55.45h-1.835c-0.8,0-1.427,0.233-1.882,0.702
		c-0.455,0.468-0.682,1.058-0.682,1.769c0,0.608,0.144,1.096,0.431,1.461C95.586,59.748,96,59.931,96.54,59.931z"/>
	<path d="M106.884,46.908v2.83h1.743v1.036h-1.743v7.197c0,0.732,0.085,1.243,0.256,1.533c0.171,0.291,0.396,0.436,0.677,0.436
		c0.137,0,0.27-0.01,0.4-0.03s0.26-0.048,0.39-0.082l0.174,0.954c-0.144,0.074-0.325,0.136-0.543,0.184s-0.444,0.072-0.677,0.072
		c-0.602,0-1.066-0.239-1.395-0.718s-0.492-1.261-0.492-2.349v-7.197h-1.354v-1.036h1.354v-2.83H106.884z"/>
	<path d="M114.224,46.58h-1.2v-1.743h1.2V46.58z M114.224,60.833h-1.2V49.738h1.2V60.833z"/>
	<path d="M118.702,54.476c0-1.463,0.343-2.652,1.031-3.568c0.687-0.916,1.625-1.374,2.814-1.374c1.196,0,2.138,0.456,2.825,1.369
		c0.687,0.912,1.031,2.104,1.031,3.573v1.631c0,1.483-0.342,2.676-1.026,3.578c-0.684,0.902-1.62,1.354-2.81,1.354
		c-1.203,0-2.148-0.451-2.835-1.354c-0.688-0.902-1.031-2.095-1.031-3.578V54.476z M119.912,56.106c0,1.127,0.226,2.056,0.677,2.783
		c0.451,0.729,1.111,1.092,1.979,1.092c0.848,0,1.499-0.365,1.953-1.097s0.682-1.657,0.682-2.778v-1.631
		c0-1.107-0.228-2.026-0.682-2.758s-1.112-1.098-1.974-1.098s-1.516,0.366-1.964,1.098s-0.671,1.65-0.671,2.758V56.106z"/>
	<path d="M131.866,49.738l0.093,1.784h0.03c0.287-0.622,0.656-1.109,1.107-1.461c0.451-0.353,0.981-0.528,1.59-0.528
		c0.943,0,1.661,0.349,2.153,1.046s0.738,1.818,0.738,3.363v6.891h-1.221v-6.87c0-1.251-0.164-2.119-0.492-2.604
		s-0.83-0.729-1.507-0.729c-0.561,0-1.039,0.207-1.436,0.621c-0.396,0.413-0.708,0.952-0.934,1.615v7.967h-1.21V49.738H131.866z"/>
	<path d="M157.62,55.47c0,1.84-0.395,3.229-1.185,4.169c-0.789,0.939-1.889,1.409-3.297,1.409c-1.381,0-2.455-0.471-3.225-1.414
		c-0.769-0.943-1.153-2.331-1.153-4.164v-4.184c0-1.831,0.385-3.223,1.153-4.173c0.77-0.95,1.844-1.425,3.225-1.425
		c1.401,0,2.499,0.477,3.292,1.43c0.793,0.954,1.189,2.344,1.189,4.168V55.47z M156.41,51.256c0-1.497-0.278-2.613-0.836-3.348
		c-0.557-0.735-1.369-1.103-2.436-1.103c-1.032,0-1.816,0.367-2.353,1.103c-0.537,0.734-0.806,1.851-0.806,3.348v4.214
		c0,1.512,0.269,2.636,0.806,3.374c0.536,0.738,1.32,1.107,2.353,1.107c1.066,0,1.879-0.367,2.436-1.103
		c0.558-0.734,0.836-1.861,0.836-3.379V51.256z"/>
	<path d="M169.574,56.26c0,1.483-0.291,2.65-0.872,3.502c-0.581,0.851-1.401,1.276-2.461,1.276c-0.615,0-1.14-0.141-1.573-0.42
		c-0.435-0.28-0.788-0.684-1.062-1.211h-0.031l-0.112,1.426h-1.046V44.837h1.21v6.326h0.03c0.273-0.525,0.621-0.929,1.041-1.209
		c0.421-0.28,0.928-0.421,1.523-0.421c1.072,0,1.899,0.451,2.48,1.354s0.872,2.133,0.872,3.691V56.26z M168.374,54.578
		c0-1.189-0.198-2.144-0.594-2.86c-0.397-0.719-1.006-1.077-1.826-1.077c-0.602,0-1.086,0.191-1.455,0.574s-0.66,0.892-0.872,1.528
		v5.28c0.219,0.608,0.518,1.082,0.897,1.42c0.379,0.339,0.862,0.508,1.451,0.508c0.813,0,1.416-0.33,1.81-0.989
		c0.393-0.66,0.589-1.561,0.589-2.702V54.578z"/>
	<path d="M179.058,58.177c0-0.512-0.151-0.948-0.451-1.307c-0.302-0.359-0.872-0.744-1.713-1.154
		c-1.087-0.478-1.873-0.951-2.358-1.42c-0.485-0.468-0.728-1.099-0.728-1.892c0-0.813,0.29-1.495,0.871-2.046
		c0.581-0.55,1.354-0.825,2.317-0.825c1.012,0,1.805,0.308,2.379,0.923s0.861,1.415,0.861,2.399h-1.2
		c0-0.608-0.183-1.133-0.548-1.574c-0.366-0.44-0.863-0.661-1.492-0.661c-0.663,0-1.159,0.171-1.487,0.513s-0.492,0.752-0.492,1.23
		c0,0.499,0.13,0.894,0.391,1.185c0.259,0.29,0.833,0.665,1.723,1.123c1.072,0.451,1.862,0.933,2.368,1.445s0.759,1.176,0.759,1.989
		c0,0.896-0.294,1.608-0.882,2.138c-0.588,0.53-1.381,0.795-2.379,0.795c-1.107,0-1.964-0.318-2.568-0.953
		c-0.605-0.637-0.907-1.426-0.907-2.369h1.199c0.034,0.813,0.27,1.395,0.707,1.743s0.961,0.522,1.569,0.522
		c0.649,0,1.155-0.172,1.518-0.518C178.876,59.119,179.058,58.69,179.058,58.177z"/>
	<path d="M187.977,61.038c-1.136,0-2.053-0.442-2.754-1.328c-0.7-0.885-1.051-2.035-1.051-3.45v-1.846
		c0-1.429,0.354-2.6,1.062-3.512c0.707-0.913,1.577-1.369,2.609-1.369c1.128,0,1.991,0.408,2.589,1.226
		c0.599,0.816,0.897,1.939,0.897,3.368v1.22h-5.947v0.913c0,1.094,0.228,1.987,0.682,2.682c0.455,0.693,1.093,1.04,1.913,1.04
		c0.635,0,1.16-0.105,1.573-0.317c0.414-0.212,0.754-0.513,1.021-0.902l0.492,0.872c-0.314,0.444-0.725,0.789-1.23,1.035
		S188.707,61.038,187.977,61.038z M187.843,50.62c-0.718,0-1.302,0.347-1.753,1.041c-0.451,0.693-0.688,1.567-0.708,2.619h4.747
		V53.81c0-0.937-0.196-1.703-0.589-2.297C189.146,50.917,188.581,50.62,187.843,50.62z"/>
	<path d="M200.598,58.177c0-0.512-0.151-0.948-0.451-1.307c-0.302-0.359-0.872-0.744-1.713-1.154
		c-1.087-0.478-1.873-0.951-2.358-1.42c-0.485-0.468-0.728-1.099-0.728-1.892c0-0.813,0.29-1.495,0.871-2.046
		c0.581-0.55,1.354-0.825,2.317-0.825c1.012,0,1.805,0.308,2.379,0.923s0.861,1.415,0.861,2.399h-1.2
		c0-0.608-0.183-1.133-0.548-1.574c-0.366-0.44-0.863-0.661-1.492-0.661c-0.663,0-1.159,0.171-1.487,0.513s-0.492,0.752-0.492,1.23
		c0,0.499,0.13,0.894,0.391,1.185c0.259,0.29,0.833,0.665,1.723,1.123c1.072,0.451,1.862,0.933,2.368,1.445s0.759,1.176,0.759,1.989
		c0,0.896-0.294,1.608-0.882,2.138c-0.588,0.53-1.381,0.795-2.379,0.795c-1.107,0-1.964-0.318-2.568-0.953
		c-0.605-0.637-0.907-1.426-0.907-2.369h1.199c0.034,0.813,0.27,1.395,0.707,1.743s0.961,0.522,1.569,0.522
		c0.649,0,1.155-0.172,1.518-0.518C200.416,59.119,200.598,58.69,200.598,58.177z"/>
	<path d="M211.197,58.177c0-0.512-0.151-0.948-0.451-1.307c-0.302-0.359-0.872-0.744-1.713-1.154
		c-1.087-0.478-1.873-0.951-2.358-1.42c-0.485-0.468-0.728-1.099-0.728-1.892c0-0.813,0.29-1.495,0.871-2.046
		c0.581-0.55,1.354-0.825,2.317-0.825c1.012,0,1.805,0.308,2.379,0.923s0.861,1.415,0.861,2.399h-1.2
		c0-0.608-0.183-1.133-0.548-1.574c-0.366-0.44-0.863-0.661-1.492-0.661c-0.663,0-1.159,0.171-1.487,0.513s-0.492,0.752-0.492,1.23
		c0,0.499,0.13,0.894,0.391,1.185c0.259,0.29,0.833,0.665,1.723,1.123c1.072,0.451,1.862,0.933,2.368,1.445s0.759,1.176,0.759,1.989
		c0,0.896-0.294,1.608-0.882,2.138c-0.588,0.53-1.381,0.795-2.379,0.795c-1.107,0-1.964-0.318-2.568-0.953
		c-0.605-0.637-0.907-1.426-0.907-2.369h1.199c0.034,0.813,0.27,1.395,0.707,1.743s0.961,0.522,1.569,0.522
		c0.649,0,1.155-0.172,1.518-0.518C211.016,59.119,211.197,58.69,211.197,58.177z"/>
	<path d="M220.116,61.038c-1.136,0-2.053-0.442-2.754-1.328c-0.7-0.885-1.051-2.035-1.051-3.45v-1.846
		c0-1.429,0.354-2.6,1.062-3.512c0.707-0.913,1.577-1.369,2.609-1.369c1.128,0,1.991,0.408,2.589,1.226
		c0.599,0.816,0.897,1.939,0.897,3.368v1.22h-5.947v0.913c0,1.094,0.228,1.987,0.682,2.682c0.455,0.693,1.093,1.04,1.913,1.04
		c0.635,0,1.16-0.105,1.573-0.317c0.414-0.212,0.754-0.513,1.021-0.902l0.492,0.872c-0.314,0.444-0.725,0.789-1.23,1.035
		S220.847,61.038,220.116,61.038z M219.982,50.62c-0.718,0-1.302,0.347-1.753,1.041c-0.451,0.693-0.688,1.567-0.708,2.619h4.747
		V53.81c0-0.937-0.196-1.703-0.589-2.297C221.286,50.917,220.721,50.62,219.982,50.62z"/>
	<path d="M227.343,55.388c0-1.811,0.289-3.24,0.867-4.285c0.577-1.047,1.406-1.569,2.486-1.569c0.567,0,1.058,0.134,1.472,0.399
		c0.413,0.268,0.76,0.646,1.04,1.139l0.031-0.01v-6.225h1.221v15.996h-1.066l-0.104-1.354h-0.03
		c-0.287,0.506-0.643,0.893-1.066,1.158c-0.424,0.268-0.93,0.4-1.518,0.4c-1.073,0-1.897-0.483-2.472-1.451
		c-0.574-0.967-0.861-2.295-0.861-3.983V55.388z M228.543,55.604c0,1.36,0.193,2.425,0.579,3.194
		c0.387,0.769,0.993,1.153,1.82,1.153c0.567,0,1.035-0.159,1.404-0.477c0.369-0.318,0.667-0.768,0.893-1.349v-5.527
		c-0.219-0.594-0.511-1.069-0.877-1.425c-0.365-0.355-0.832-0.533-1.399-0.533c-0.827,0-1.438,0.431-1.83,1.292
		c-0.394,0.861-0.59,2.014-0.59,3.455V55.604z"/>
</g>
</svg>
